<svg width="72" height="100" viewBox="0 0 72 100" fill="none" xmlns="http://www.w3.org/2000/svg">
<path d="M7.16764 64.5328C6.8358 60.4743 7.47316 56.7572 9.07972 53.3814C10.7261 50.0023 13.0875 47.2858 16.164 45.2318C19.277 43.1348 22.7633 41.9284 26.6228 41.6129C31.0393 41.2518 35.048 42.0255 38.6487 43.9341C42.286 45.7996 45.0432 48.6584 46.9203 52.5104L38.7437 53.179C37.4905 51.0784 35.865 49.5691 33.8673 48.651C31.8696 47.7328 29.6174 47.3762 27.1108 47.5812C24.3653 47.8057 21.9688 48.6225 19.921 50.0316C17.8733 51.4407 16.327 53.3496 15.2823 55.7582C14.2773 58.1635 13.9001 60.8981 14.1506 63.9618C14.4011 67.0255 15.2175 69.6625 16.5999 71.8726C18.022 74.0795 19.8594 75.7318 22.1121 76.8293C24.3616 77.8871 26.859 78.3037 29.6044 78.0793C32.1111 77.8743 34.2755 77.1566 36.0975 75.9261C37.9195 74.6957 39.2782 72.9423 40.1736 70.6661L48.3501 69.9976C47.1237 74.1033 44.8675 77.372 41.5816 79.8036C38.3354 82.232 34.5041 83.6268 30.0875 83.9879C26.1882 84.3067 22.5539 83.7026 19.1847 82.1757C15.8121 80.6089 13.0392 78.2921 10.8658 75.2254C8.73219 72.1554 7.49948 68.5912 7.16764 64.5328Z" fill="#6268BF"/>
<path d="M9.07972 53.3814L8.2622 52.9831L8.25861 52.9906L9.07972 53.3814ZM16.164 45.2318L16.6689 45.9881L16.672 45.986L16.164 45.2318ZM38.6487 43.9341L38.2228 44.7376L38.2337 44.7432L38.6487 43.9341ZM46.9203 52.5104L46.9944 53.4167L48.3207 53.3083L47.7378 52.1121L46.9203 52.5104ZM38.7437 53.179L37.9628 53.6449L38.2531 54.1315L38.8178 54.0853L38.7437 53.179ZM33.8673 48.651L34.2471 47.8247L34.2471 47.8247L33.8673 48.651ZM19.921 50.0316L20.4365 50.7807L20.4365 50.7807L19.921 50.0316ZM15.2823 55.7582L14.4479 55.3963L14.4432 55.4076L15.2823 55.7582ZM16.5999 71.8726L15.8288 72.3549L15.8355 72.3652L16.5999 71.8726ZM22.1121 76.8293L21.7138 77.6469L21.7252 77.6522L22.1121 76.8293ZM36.0975 75.9261L36.6064 76.6797L36.6064 76.6797L36.0975 75.9261ZM40.1736 70.6661L40.0995 69.7598L39.5347 69.806L39.3273 70.3333L40.1736 70.6661ZM48.3501 69.9976L49.2214 70.2578L49.6023 68.9828L48.276 69.0913L48.3501 69.9976ZM41.5816 79.8036L41.0407 79.0727L41.0369 79.0755L41.5816 79.8036ZM19.1847 82.1757L18.8015 83.0004L18.8093 83.0039L19.1847 82.1757ZM10.8658 75.2254L10.119 75.7444L10.1239 75.7512L10.8658 75.2254ZM8.07396 64.4587C7.75398 60.5453 8.36921 56.9905 9.90082 53.7722L8.25861 52.9906C6.57711 56.5239 5.91762 60.4033 6.26132 64.6069L8.07396 64.4587ZM9.89719 53.7797C11.4741 50.5431 13.7287 47.9511 16.6689 45.9881L15.659 44.4755C12.4462 46.6206 9.97799 49.4616 8.26224 52.9831L9.89719 53.7797ZM16.672 45.986C19.6516 43.9788 22.9875 42.8225 26.6969 42.5192L26.5487 40.7066C22.539 41.0344 18.9024 42.2907 15.6559 44.4776L16.672 45.986ZM26.6969 42.5192C30.9561 42.1709 34.7889 42.9174 38.2229 44.7375L39.0746 43.1306C35.3071 41.1336 31.1225 40.3326 26.5487 40.7066L26.6969 42.5192ZM38.2337 44.7432C41.6872 46.5145 44.3075 49.2245 46.1029 52.9088L47.7378 52.1121C45.7789 48.0923 42.8849 45.0848 39.0637 43.125L38.2337 44.7432ZM46.8462 51.6041L38.6696 52.2727L38.8178 54.0853L46.9944 53.4167L46.8462 51.6041ZM39.5246 52.7131C38.1882 50.4731 36.4304 48.8282 34.2471 47.8247L33.4876 49.4772C35.2996 50.31 36.7928 51.6837 37.9628 53.6449L39.5246 52.7131ZM34.2471 47.8247C32.0881 46.8324 29.6763 46.459 27.0367 46.6749L27.1849 48.4875C29.5586 48.2934 31.6511 48.6332 33.4876 49.4772L34.2471 47.8247ZM27.0367 46.6749C24.1504 46.9109 21.5979 47.7738 19.4055 49.2825L20.4365 50.7807C22.3396 49.4711 24.5802 48.7005 27.1849 48.4875L27.0367 46.6749ZM19.4055 49.2825C17.2093 50.7938 15.5566 52.8405 14.448 55.3963L16.1165 56.12C17.0974 53.8587 18.5373 52.0877 20.4365 50.7807L19.4055 49.2825ZM14.4432 55.4076C13.373 57.9692 12.984 60.8532 13.2442 64.0359L15.0569 63.8877C14.8161 60.943 15.1816 58.3579 16.1213 56.1087L14.4432 55.4076ZM13.2442 64.0359C13.5045 67.2186 14.3568 70.0011 15.8289 72.3548L17.3708 71.3904C16.0782 69.3238 15.2977 66.8324 15.0569 63.8877L13.2442 64.0359ZM15.8355 72.3652C17.3432 74.7048 19.3044 76.4729 21.7138 77.6468L22.5104 76.0118C20.4144 74.9906 18.7008 73.4542 17.3642 71.3801L15.8355 72.3652ZM21.7252 77.6522C24.1335 78.7847 26.7923 79.2216 29.6785 78.9856L29.5303 77.1729C26.9257 77.3859 24.5896 76.9895 22.4991 76.0064L21.7252 77.6522ZM29.6785 78.9856C32.3182 78.7697 34.6373 78.0095 36.6064 76.6797L35.5886 75.1725C33.9136 76.3037 31.9041 76.9788 29.5303 77.1729L29.6785 78.9856ZM36.6064 76.6797C38.5977 75.3349 40.065 73.4263 41.0198 70.999L39.3273 70.3333C38.4914 72.4584 37.2413 74.0564 35.5886 75.1725L36.6064 76.6797ZM40.2477 71.5724L48.4242 70.9039L48.276 69.0913L40.0995 69.7598L40.2477 71.5724ZM47.4788 69.7373C46.3058 73.6643 44.1605 76.764 41.0407 79.0727L42.1225 80.5346C45.5746 77.9801 47.9416 74.5424 49.2214 70.2578L47.4788 69.7373ZM41.0369 79.0755C37.9404 81.3919 34.2759 82.733 30.0134 83.0816L30.1616 84.8942C34.7322 84.5205 38.7305 83.0721 42.1263 80.5318L41.0369 79.0755ZM30.0134 83.0816C26.259 83.3885 22.7804 82.8069 19.56 81.3474L18.8093 83.0039C22.3275 84.5984 26.1175 85.2249 30.1616 84.8942L30.0134 83.0816ZM19.5678 81.351C16.3404 79.8516 13.6906 77.6386 11.6077 74.6996L10.1239 75.7512C12.3877 78.9456 15.2838 81.3661 18.8015 83.0003L19.5678 81.351ZM11.6125 74.7065C9.57844 71.7797 8.39393 68.372 8.07396 64.4587L6.26132 64.6069C6.60502 68.8104 7.88594 72.5312 10.1191 75.7444L11.6125 74.7065Z" fill="#6268BF"/>
<path d="M47.4758 96.9523C44.2023 97.1476 41.2227 96.7621 38.537 95.796C35.8484 94.7831 33.6932 93.269 32.0712 91.2539C30.4492 89.2388 29.5546 86.8283 29.3872 84.0224L37.9451 83.512C38.2576 85.6052 39.1792 87.2867 40.7098 88.5564C42.2871 89.8233 44.4086 90.3773 47.0742 90.2183C49.8332 90.0537 51.9453 89.2707 53.4105 87.8693C54.8728 86.4211 55.5412 84.6448 55.4157 82.5404C55.3181 80.9036 54.7475 79.6001 53.7041 78.6299C52.7075 77.6569 51.4676 76.933 49.9844 76.4583C48.548 75.9808 46.5477 75.49 43.9833 74.9859C40.7532 74.3338 38.1076 73.6469 36.0465 72.9251C34.0294 72.1537 32.265 70.898 30.7533 69.1578C29.2416 67.4177 28.3951 65.0278 28.2138 61.9881C28.0464 59.1823 28.6015 56.6853 29.8789 54.4973C31.1563 52.3092 33.0241 50.5787 35.4825 49.3057C37.9408 48.0328 40.8301 47.2973 44.1503 47.0992C48.8735 46.8175 52.8027 47.7799 55.9378 49.9863C59.117 52.1433 60.993 55.2696 61.5658 59.3653L52.7273 59.8925C52.481 58.1238 51.5486 56.6542 49.9301 55.4836C48.3116 54.313 46.2397 53.803 43.7144 53.9536C41.423 54.0903 39.5873 54.7864 38.2073 56.042C36.8274 57.2976 36.2029 59.0243 36.334 61.2222C36.4233 62.7187 36.9414 63.9314 37.8885 64.8605C38.8796 65.74 40.0933 66.4185 41.5297 66.896C42.9661 67.3735 44.9197 67.867 47.3905 68.3767C50.6702 69.0728 53.342 69.8051 55.4059 70.5737C57.5165 71.3395 59.3291 72.6158 60.8436 74.4027C62.402 76.14 63.2733 78.5519 63.4574 81.6383C63.6052 84.1168 63.0666 86.4955 61.8415 88.7743C60.6632 91.0503 58.8285 92.9431 56.3374 94.4527C53.8902 95.9127 50.9364 96.7459 47.4758 96.9523Z" fill="#6268BF"/>
</svg>
